<svg id="Layer_1" data-name="Layer 1" xmlns="http://www.w3.org/2000/svg" viewBox="0 0 9.88 18.8">
  <path class="cls-1" d="m2.81,10.34H0v-3.76h2.81s0-.06,0-.09c0-.71,0-1.43,0-2.14,0-.65.1-1.29.36-1.9.44-1.07,1.22-1.79,2.31-2.17C6.11.06,6.77-.02,7.43,0c.56.02,1.13.04,1.69.07.21.01.43.04.64.06,0,0,.02,0,.03,0v2.98s-.05,0-.08,0c-.64,0-1.28,0-1.92.01-.18,0-.36.04-.54.09-.36.1-.57.36-.63.73-.03.22-.05.45-.05.67,0,.63,0,1.25,0,1.88,0,.02,0,.05,0,.08h3.31c-.14,1.25-.29,2.5-.43,3.75-.03,0-.05,0-.08,0-.91,0-1.82,0-2.73,0-.05,0-.08,0-.08.07,0,1.26,0,2.52,0,3.78,0,1.44,0,2.89,0,4.33,0,.09,0,.18,0,.27h-.27c-1.14,0-2.27,0-3.41,0-.07,0-.08-.02-.08-.08,0-1.56,0-3.11,0-4.67,0-1.2,0-2.4,0-3.59v-.11Z" fill="#fff"/>
</svg>