<svg xmlns="http://www.w3.org/2000/svg" width="25.137" height="17.597" viewBox="0 0 25.137 17.597">
  <path id="Path_2859" data-name="Path 2859" d="M306.611,5220.022a3.13,3.13,0,0,0-.811-1.394,3.09,3.09,0,0,0-1.4-.815c-1.967-.541-9.835-.554-9.835-.554s-7.867-.012-9.835.5A3.223,3.223,0,0,0,282.51,5220a33.373,33.373,0,0,0-.524,6.053,33.023,33.023,0,0,0,.51,6.041,3.166,3.166,0,0,0,2.214,2.223c1.987.541,9.834.541,9.834.541s7.869.012,9.835-.5a3.108,3.108,0,0,0,1.4-.816,3.165,3.165,0,0,0,.815-1.394,33.262,33.262,0,0,0,.524-6.054A31.523,31.523,0,0,0,306.611,5220.022Zm-14.565,9.81.006-7.536,6.54,3.768Z" transform="translate(-281.986 -5217.259)" fill="#fff"/>
</svg>
